<mxfile host="app.diagrams.net" modified="2022-11-19T14:38:10.135Z" agent="5.0 (Windows NT 10.0; Win64; x64) AppleWebKit/537.36 (KHTML, like Gecko) Chrome/107.0.0.0 Safari/537.36" etag="JzRR02WojHmXl0tomwcq" version="20.5.3" type="github">
  <diagram id="1XaObp9uDBfdOyjk7Z0H" name="페이지-1">
    <mxGraphModel dx="1692" dy="504" grid="1" gridSize="10" guides="1" tooltips="1" connect="1" arrows="1" fold="1" page="1" pageScale="1" pageWidth="827" pageHeight="1169" math="0" shadow="0">
      <root>
        <mxCell id="0" />
        <mxCell id="1" parent="0" />
        <mxCell id="I86NcKJimPg6Q7xcF8Yh-32" style="edgeStyle=orthogonalEdgeStyle;rounded=0;orthogonalLoop=1;jettySize=auto;html=1;exitX=0.5;exitY=0;exitDx=0;exitDy=0;entryX=0.5;entryY=1;entryDx=0;entryDy=0;endArrow=classic;endFill=1;" parent="1" edge="1">
          <mxGeometry relative="1" as="geometry">
            <mxPoint x="-425" y="313" as="sourcePoint" />
            <mxPoint x="-425" y="279" as="targetPoint" />
          </mxGeometry>
        </mxCell>
        <mxCell id="k-zhsy2dJpIwOM4Q3zPo-12" value="관찰일지 인터페이스" style="swimlane;fontStyle=1;align=center;verticalAlign=top;childLayout=stackLayout;horizontal=1;startSize=26;horizontalStack=0;resizeParent=1;resizeParentMax=0;resizeLast=0;collapsible=1;marginBottom=0;" parent="1" vertex="1">
          <mxGeometry x="-580" y="570" width="165" height="94" as="geometry" />
        </mxCell>
        <mxCell id="k-zhsy2dJpIwOM4Q3zPo-13" value="+ date: datetime&#xa;" style="text;strokeColor=none;fillColor=none;align=left;verticalAlign=top;spacingLeft=4;spacingRight=4;overflow=hidden;rotatable=0;points=[[0,0.5],[1,0.5]];portConstraint=eastwest;" parent="k-zhsy2dJpIwOM4Q3zPo-12" vertex="1">
          <mxGeometry y="26" width="165" height="34" as="geometry" />
        </mxCell>
        <mxCell id="k-zhsy2dJpIwOM4Q3zPo-14" value="" style="line;strokeWidth=1;fillColor=none;align=left;verticalAlign=middle;spacingTop=-1;spacingLeft=3;spacingRight=3;rotatable=0;labelPosition=right;points=[];portConstraint=eastwest;strokeColor=inherit;" parent="k-zhsy2dJpIwOM4Q3zPo-12" vertex="1">
          <mxGeometry y="60" width="165" height="8" as="geometry" />
        </mxCell>
        <mxCell id="k-zhsy2dJpIwOM4Q3zPo-15" value="+ show_diary(date)" style="text;strokeColor=none;fillColor=none;align=left;verticalAlign=top;spacingLeft=4;spacingRight=4;overflow=hidden;rotatable=0;points=[[0,0.5],[1,0.5]];portConstraint=eastwest;" parent="k-zhsy2dJpIwOM4Q3zPo-12" vertex="1">
          <mxGeometry y="68" width="165" height="26" as="geometry" />
        </mxCell>
        <mxCell id="k-zhsy2dJpIwOM4Q3zPo-37" value="" style="endArrow=open;dashed=1;endFill=0;endSize=12;html=1;rounded=0;exitX=1;exitY=0.5;exitDx=0;exitDy=0;" parent="1" source="COGvVzHrgGLiA8UMYfeR-6" target="COGvVzHrgGLiA8UMYfeR-13" edge="1">
          <mxGeometry width="160" relative="1" as="geometry">
            <mxPoint x="-630" y="263" as="sourcePoint" />
            <mxPoint x="-505" y="142" as="targetPoint" />
          </mxGeometry>
        </mxCell>
        <mxCell id="k-zhsy2dJpIwOM4Q3zPo-38" value="operate" style="text;html=1;align=center;verticalAlign=middle;resizable=0;points=[];autosize=1;strokeColor=none;fillColor=none;" parent="1" vertex="1">
          <mxGeometry x="-595" y="113" width="60" height="30" as="geometry" />
        </mxCell>
        <mxCell id="I86NcKJimPg6Q7xcF8Yh-4" value="Device_ctrl_pump" style="swimlane;fontStyle=1;align=center;verticalAlign=top;childLayout=stackLayout;horizontal=1;startSize=26;horizontalStack=0;resizeParent=1;resizeParentMax=0;resizeLast=0;collapsible=1;marginBottom=0;strokeColor=default;" parent="1" vertex="1">
          <mxGeometry x="-215" y="50" width="175" height="70" as="geometry" />
        </mxCell>
        <mxCell id="I86NcKJimPg6Q7xcF8Yh-6" value="" style="line;strokeWidth=1;fillColor=none;align=left;verticalAlign=middle;spacingTop=-1;spacingLeft=3;spacingRight=3;rotatable=0;labelPosition=right;points=[];portConstraint=eastwest;strokeColor=inherit;" parent="I86NcKJimPg6Q7xcF8Yh-4" vertex="1">
          <mxGeometry y="26" width="175" height="8" as="geometry" />
        </mxCell>
        <mxCell id="I86NcKJimPg6Q7xcF8Yh-7" value="+ pump_onoff(boolean onoff) :&#xa;                        boolean realon " style="text;strokeColor=none;fillColor=none;align=left;verticalAlign=top;spacingLeft=4;spacingRight=4;overflow=hidden;rotatable=0;points=[[0,0.5],[1,0.5]];portConstraint=eastwest;" parent="I86NcKJimPg6Q7xcF8Yh-4" vertex="1">
          <mxGeometry y="34" width="175" height="36" as="geometry" />
        </mxCell>
        <mxCell id="I86NcKJimPg6Q7xcF8Yh-29" style="edgeStyle=orthogonalEdgeStyle;rounded=0;orthogonalLoop=1;jettySize=auto;html=1;exitX=0;exitY=0.5;exitDx=0;exitDy=0;endArrow=block;endFill=0;" parent="1" source="I86NcKJimPg6Q7xcF8Yh-8" edge="1">
          <mxGeometry relative="1" as="geometry">
            <mxPoint x="-345" y="142" as="targetPoint" />
            <Array as="points">
              <mxPoint x="-280" y="173" />
              <mxPoint x="-280" y="142" />
            </Array>
          </mxGeometry>
        </mxCell>
        <mxCell id="I86NcKJimPg6Q7xcF8Yh-8" value="Device_ctrl_fan" style="swimlane;fontStyle=1;align=center;verticalAlign=top;childLayout=stackLayout;horizontal=1;startSize=26;horizontalStack=0;resizeParent=1;resizeParentMax=0;resizeLast=0;collapsible=1;marginBottom=0;strokeColor=default;" parent="1" vertex="1">
          <mxGeometry x="-215" y="143" width="175" height="70" as="geometry" />
        </mxCell>
        <mxCell id="I86NcKJimPg6Q7xcF8Yh-10" value="" style="line;strokeWidth=1;fillColor=none;align=left;verticalAlign=middle;spacingTop=-1;spacingLeft=3;spacingRight=3;rotatable=0;labelPosition=right;points=[];portConstraint=eastwest;strokeColor=inherit;" parent="I86NcKJimPg6Q7xcF8Yh-8" vertex="1">
          <mxGeometry y="26" width="175" height="8" as="geometry" />
        </mxCell>
        <mxCell id="I86NcKJimPg6Q7xcF8Yh-11" value="+ fan_onoff(boolean onoff):&#xa;                        boolean realon" style="text;strokeColor=none;fillColor=none;align=left;verticalAlign=top;spacingLeft=4;spacingRight=4;overflow=hidden;rotatable=0;points=[[0,0.5],[1,0.5]];portConstraint=eastwest;" parent="I86NcKJimPg6Q7xcF8Yh-8" vertex="1">
          <mxGeometry y="34" width="175" height="36" as="geometry" />
        </mxCell>
        <mxCell id="I86NcKJimPg6Q7xcF8Yh-12" value="Device_ctrl_led" style="swimlane;fontStyle=1;align=center;verticalAlign=top;childLayout=stackLayout;horizontal=1;startSize=26;horizontalStack=0;resizeParent=1;resizeParentMax=0;resizeLast=0;collapsible=1;marginBottom=0;strokeColor=default;" parent="1" vertex="1">
          <mxGeometry x="-215" y="220" width="175" height="70" as="geometry" />
        </mxCell>
        <mxCell id="I86NcKJimPg6Q7xcF8Yh-14" value="" style="line;strokeWidth=1;fillColor=none;align=left;verticalAlign=middle;spacingTop=-1;spacingLeft=3;spacingRight=3;rotatable=0;labelPosition=right;points=[];portConstraint=eastwest;strokeColor=inherit;" parent="I86NcKJimPg6Q7xcF8Yh-12" vertex="1">
          <mxGeometry y="26" width="175" height="8" as="geometry" />
        </mxCell>
        <mxCell id="I86NcKJimPg6Q7xcF8Yh-15" value="+ led_onoff(boolean onoff):&#xa;                        boolean realon" style="text;strokeColor=none;fillColor=none;align=left;verticalAlign=top;spacingLeft=4;spacingRight=4;overflow=hidden;rotatable=0;points=[[0,0.5],[1,0.5]];portConstraint=eastwest;" parent="I86NcKJimPg6Q7xcF8Yh-12" vertex="1">
          <mxGeometry y="34" width="175" height="36" as="geometry" />
        </mxCell>
        <mxCell id="I86NcKJimPg6Q7xcF8Yh-28" style="edgeStyle=orthogonalEdgeStyle;rounded=0;orthogonalLoop=1;jettySize=auto;html=1;exitX=0;exitY=0.5;exitDx=0;exitDy=0;entryX=1;entryY=0.5;entryDx=0;entryDy=0;endArrow=block;endFill=0;" parent="1" source="I86NcKJimPg6Q7xcF8Yh-15" edge="1">
          <mxGeometry relative="1" as="geometry">
            <mxPoint x="-345" y="142" as="targetPoint" />
            <Array as="points">
              <mxPoint x="-280" y="267" />
              <mxPoint x="-280" y="142" />
            </Array>
          </mxGeometry>
        </mxCell>
        <mxCell id="I86NcKJimPg6Q7xcF8Yh-30" style="edgeStyle=orthogonalEdgeStyle;rounded=0;orthogonalLoop=1;jettySize=auto;html=1;exitX=0;exitY=0.5;exitDx=0;exitDy=0;endArrow=block;endFill=0;" parent="1" source="I86NcKJimPg6Q7xcF8Yh-7" edge="1">
          <mxGeometry relative="1" as="geometry">
            <mxPoint x="-345" y="142" as="targetPoint" />
            <Array as="points">
              <mxPoint x="-280" y="97" />
              <mxPoint x="-280" y="142" />
            </Array>
          </mxGeometry>
        </mxCell>
        <mxCell id="I86NcKJimPg6Q7xcF8Yh-33" style="edgeStyle=orthogonalEdgeStyle;rounded=0;orthogonalLoop=1;jettySize=auto;html=1;exitX=0.562;exitY=1.017;exitDx=0;exitDy=0;endArrow=classic;endFill=1;exitPerimeter=0;" parent="1" source="COGvVzHrgGLiA8UMYfeR-43" target="k-zhsy2dJpIwOM4Q3zPo-12" edge="1">
          <mxGeometry relative="1" as="geometry">
            <mxPoint x="-425" y="519" as="targetPoint" />
            <mxPoint x="-425" y="452.9999999999999" as="sourcePoint" />
            <Array as="points">
              <mxPoint x="-395" y="525" />
              <mxPoint x="-497" y="525" />
            </Array>
          </mxGeometry>
        </mxCell>
        <mxCell id="I86NcKJimPg6Q7xcF8Yh-34" value="카메라 사진 업로드" style="swimlane;fontStyle=1;align=center;verticalAlign=top;childLayout=stackLayout;horizontal=1;startSize=26;horizontalStack=0;resizeParent=1;resizeParentMax=0;resizeLast=0;collapsible=1;marginBottom=0;" parent="1" vertex="1">
          <mxGeometry x="-355" y="640" width="160" height="78" as="geometry" />
        </mxCell>
        <mxCell id="I86NcKJimPg6Q7xcF8Yh-35" value="+date: datetime&#xa;+bitmap" style="text;strokeColor=none;fillColor=none;align=left;verticalAlign=top;spacingLeft=4;spacingRight=4;overflow=hidden;rotatable=0;points=[[0,0.5],[1,0.5]];portConstraint=eastwest;" parent="I86NcKJimPg6Q7xcF8Yh-34" vertex="1">
          <mxGeometry y="26" width="160" height="44" as="geometry" />
        </mxCell>
        <mxCell id="I86NcKJimPg6Q7xcF8Yh-36" value="" style="line;strokeWidth=1;fillColor=none;align=left;verticalAlign=middle;spacingTop=-1;spacingLeft=3;spacingRight=3;rotatable=0;labelPosition=right;points=[];portConstraint=eastwest;strokeColor=inherit;" parent="I86NcKJimPg6Q7xcF8Yh-34" vertex="1">
          <mxGeometry y="70" width="160" height="8" as="geometry" />
        </mxCell>
        <mxCell id="I86NcKJimPg6Q7xcF8Yh-37" style="edgeStyle=orthogonalEdgeStyle;rounded=0;orthogonalLoop=1;jettySize=auto;html=1;exitX=0;exitY=0.5;exitDx=0;exitDy=0;entryX=1;entryY=0.5;entryDx=0;entryDy=0;endArrow=none;endFill=0;" parent="1" source="I86NcKJimPg6Q7xcF8Yh-35" target="k-zhsy2dJpIwOM4Q3zPo-13" edge="1">
          <mxGeometry relative="1" as="geometry">
            <mxPoint x="-313.5250000000001" y="616.5799999999999" as="targetPoint" />
          </mxGeometry>
        </mxCell>
        <mxCell id="4LXqGNSN8FMaUc9a0r_w-8" style="edgeStyle=orthogonalEdgeStyle;rounded=0;orthogonalLoop=1;jettySize=auto;html=1;exitX=0;exitY=0.5;exitDx=0;exitDy=0;endArrow=block;endFill=0;" parent="1" target="COGvVzHrgGLiA8UMYfeR-40" edge="1">
          <mxGeometry relative="1" as="geometry">
            <mxPoint x="-215" y="408.0000000000001" as="sourcePoint" />
            <mxPoint x="-345" y="422.9999999999999" as="targetPoint" />
            <Array as="points">
              <mxPoint x="-280" y="408" />
              <mxPoint x="-280" y="357" />
            </Array>
          </mxGeometry>
        </mxCell>
        <mxCell id="4LXqGNSN8FMaUc9a0r_w-11" style="edgeStyle=orthogonalEdgeStyle;rounded=0;orthogonalLoop=1;jettySize=auto;html=1;exitX=0;exitY=0.5;exitDx=0;exitDy=0;endArrow=block;endFill=0;" parent="1" target="COGvVzHrgGLiA8UMYfeR-40" edge="1">
          <mxGeometry relative="1" as="geometry">
            <mxPoint x="-215" y="488.0000000000001" as="sourcePoint" />
            <mxPoint x="-345" y="422.9999999999999" as="targetPoint" />
            <Array as="points">
              <mxPoint x="-280" y="488" />
              <mxPoint x="-280" y="357" />
            </Array>
          </mxGeometry>
        </mxCell>
        <mxCell id="dQ0pSVFAiU5gwKDEf972-1" style="edgeStyle=orthogonalEdgeStyle;rounded=0;orthogonalLoop=1;jettySize=auto;html=1;exitX=1.018;exitY=0.571;exitDx=0;exitDy=0;entryX=0;entryY=0.25;entryDx=0;entryDy=0;endArrow=none;endFill=0;exitPerimeter=0;" parent="1" edge="1">
          <mxGeometry relative="1" as="geometry">
            <mxPoint x="-606.5799999999999" y="453.96400000000006" as="sourcePoint" />
            <mxPoint x="-505" y="407.9999999999999" as="targetPoint" />
          </mxGeometry>
        </mxCell>
        <mxCell id="COGvVzHrgGLiA8UMYfeR-3" value="수동조절 인터페이스" style="swimlane;fontStyle=1;align=center;verticalAlign=top;childLayout=stackLayout;horizontal=1;startSize=26;horizontalStack=0;resizeParent=1;resizeParentMax=0;resizeLast=0;collapsible=1;marginBottom=0;" vertex="1" parent="1">
          <mxGeometry x="-790" y="143" width="160" height="130" as="geometry" />
        </mxCell>
        <mxCell id="COGvVzHrgGLiA8UMYfeR-5" value="" style="line;strokeWidth=1;fillColor=none;align=left;verticalAlign=middle;spacingTop=-1;spacingLeft=3;spacingRight=3;rotatable=0;labelPosition=right;points=[];portConstraint=eastwest;strokeColor=inherit;" vertex="1" parent="COGvVzHrgGLiA8UMYfeR-3">
          <mxGeometry y="26" width="160" height="8" as="geometry" />
        </mxCell>
        <mxCell id="COGvVzHrgGLiA8UMYfeR-6" value="+ send_data(String path, &#xa;                    boolean onoff):&#xa;+ send_mode(String path,&#xa;                    int mode)&#xa;+ get_realon(String path) :&#xa;                    boolean onoff" style="text;strokeColor=none;fillColor=none;align=left;verticalAlign=top;spacingLeft=4;spacingRight=4;overflow=hidden;rotatable=0;points=[[0,0.5],[1,0.5]];portConstraint=eastwest;" vertex="1" parent="COGvVzHrgGLiA8UMYfeR-3">
          <mxGeometry y="34" width="160" height="96" as="geometry" />
        </mxCell>
        <mxCell id="COGvVzHrgGLiA8UMYfeR-13" value="Device_ctrl" style="swimlane;fontStyle=1;align=center;verticalAlign=top;childLayout=stackLayout;horizontal=1;startSize=26;horizontalStack=0;resizeParent=1;resizeParentMax=0;resizeLast=0;collapsible=1;marginBottom=0;" vertex="1" parent="1">
          <mxGeometry x="-520" y="90" width="190" height="190" as="geometry" />
        </mxCell>
        <mxCell id="COGvVzHrgGLiA8UMYfeR-14" value="- int : mode&#xa;" style="text;strokeColor=none;fillColor=none;align=left;verticalAlign=top;spacingLeft=4;spacingRight=4;overflow=hidden;rotatable=0;points=[[0,0.5],[1,0.5]];portConstraint=eastwest;" vertex="1" parent="COGvVzHrgGLiA8UMYfeR-13">
          <mxGeometry y="26" width="190" height="24" as="geometry" />
        </mxCell>
        <mxCell id="COGvVzHrgGLiA8UMYfeR-15" value="" style="line;strokeWidth=1;fillColor=none;align=left;verticalAlign=middle;spacingTop=-1;spacingLeft=3;spacingRight=3;rotatable=0;labelPosition=right;points=[];portConstraint=eastwest;strokeColor=inherit;" vertex="1" parent="COGvVzHrgGLiA8UMYfeR-13">
          <mxGeometry y="50" width="190" height="8" as="geometry" />
        </mxCell>
        <mxCell id="COGvVzHrgGLiA8UMYfeR-16" value="+ modecheck(int mode): &#xa;                            boolean&#xa;+retrieve_data(String path):&#xa;                            boolean&#xa;+exception_check(String path):&#xa;                            boolean&#xa;+ send_realon(String path,&#xa;                         boolean onoff)" style="text;strokeColor=none;fillColor=none;align=left;verticalAlign=top;spacingLeft=4;spacingRight=4;overflow=hidden;rotatable=0;points=[[0,0.5],[1,0.5]];portConstraint=eastwest;" vertex="1" parent="COGvVzHrgGLiA8UMYfeR-13">
          <mxGeometry y="58" width="190" height="132" as="geometry" />
        </mxCell>
        <mxCell id="COGvVzHrgGLiA8UMYfeR-18" value="자동조절 인터페이스" style="swimlane;fontStyle=1;align=center;verticalAlign=top;childLayout=stackLayout;horizontal=1;startSize=26;horizontalStack=0;resizeParent=1;resizeParentMax=0;resizeLast=0;collapsible=1;marginBottom=0;" vertex="1" parent="1">
          <mxGeometry x="-800" y="380" width="190" height="136" as="geometry" />
        </mxCell>
        <mxCell id="COGvVzHrgGLiA8UMYfeR-20" value="" style="line;strokeWidth=1;fillColor=none;align=left;verticalAlign=middle;spacingTop=-1;spacingLeft=3;spacingRight=3;rotatable=0;labelPosition=right;points=[];portConstraint=eastwest;strokeColor=inherit;" vertex="1" parent="COGvVzHrgGLiA8UMYfeR-18">
          <mxGeometry y="26" width="190" height="8" as="geometry" />
        </mxCell>
        <mxCell id="COGvVzHrgGLiA8UMYfeR-21" value="+ send_mode(String path,&#xa;                    int mode)&#xa;+ send_user_setting(String path,&#xa;                    int setting):" style="text;strokeColor=none;fillColor=none;align=left;verticalAlign=top;spacingLeft=4;spacingRight=4;overflow=hidden;rotatable=0;points=[[0,0.5],[1,0.5]];portConstraint=eastwest;" vertex="1" parent="COGvVzHrgGLiA8UMYfeR-18">
          <mxGeometry y="34" width="190" height="102" as="geometry" />
        </mxCell>
        <mxCell id="COGvVzHrgGLiA8UMYfeR-26" style="edgeStyle=orthogonalEdgeStyle;rounded=0;orthogonalLoop=1;jettySize=auto;html=1;endArrow=block;endFill=0;" edge="1" parent="1" target="COGvVzHrgGLiA8UMYfeR-40">
          <mxGeometry relative="1" as="geometry">
            <mxPoint x="-215" y="556" as="sourcePoint" />
            <mxPoint x="-345" y="422.9999999999999" as="targetPoint" />
            <Array as="points">
              <mxPoint x="-280" y="556" />
              <mxPoint x="-280" y="357" />
            </Array>
          </mxGeometry>
        </mxCell>
        <mxCell id="COGvVzHrgGLiA8UMYfeR-27" value="Sensor_temp" style="swimlane;fontStyle=1;align=center;verticalAlign=top;childLayout=stackLayout;horizontal=1;startSize=26;horizontalStack=0;resizeParent=1;resizeParentMax=0;resizeLast=0;collapsible=1;marginBottom=0;" vertex="1" parent="1">
          <mxGeometry x="-215" y="300" width="190" height="60" as="geometry" />
        </mxCell>
        <mxCell id="COGvVzHrgGLiA8UMYfeR-29" value="" style="line;strokeWidth=1;fillColor=none;align=left;verticalAlign=middle;spacingTop=-1;spacingLeft=3;spacingRight=3;rotatable=0;labelPosition=right;points=[];portConstraint=eastwest;strokeColor=inherit;" vertex="1" parent="COGvVzHrgGLiA8UMYfeR-27">
          <mxGeometry y="26" width="190" height="8" as="geometry" />
        </mxCell>
        <mxCell id="COGvVzHrgGLiA8UMYfeR-30" value="+ read_temp(): int temp" style="text;strokeColor=none;fillColor=none;align=left;verticalAlign=top;spacingLeft=4;spacingRight=4;overflow=hidden;rotatable=0;points=[[0,0.5],[1,0.5]];portConstraint=eastwest;" vertex="1" parent="COGvVzHrgGLiA8UMYfeR-27">
          <mxGeometry y="34" width="190" height="26" as="geometry" />
        </mxCell>
        <mxCell id="COGvVzHrgGLiA8UMYfeR-31" value="Sensor_humi" style="swimlane;fontStyle=1;align=center;verticalAlign=top;childLayout=stackLayout;horizontal=1;startSize=26;horizontalStack=0;resizeParent=1;resizeParentMax=0;resizeLast=0;collapsible=1;marginBottom=0;" vertex="1" parent="1">
          <mxGeometry x="-215" y="370" width="190" height="60" as="geometry" />
        </mxCell>
        <mxCell id="COGvVzHrgGLiA8UMYfeR-32" value="" style="line;strokeWidth=1;fillColor=none;align=left;verticalAlign=middle;spacingTop=-1;spacingLeft=3;spacingRight=3;rotatable=0;labelPosition=right;points=[];portConstraint=eastwest;strokeColor=inherit;" vertex="1" parent="COGvVzHrgGLiA8UMYfeR-31">
          <mxGeometry y="26" width="190" height="8" as="geometry" />
        </mxCell>
        <mxCell id="COGvVzHrgGLiA8UMYfeR-33" value="+ read_humi(): int humi" style="text;strokeColor=none;fillColor=none;align=left;verticalAlign=top;spacingLeft=4;spacingRight=4;overflow=hidden;rotatable=0;points=[[0,0.5],[1,0.5]];portConstraint=eastwest;" vertex="1" parent="COGvVzHrgGLiA8UMYfeR-31">
          <mxGeometry y="34" width="190" height="26" as="geometry" />
        </mxCell>
        <mxCell id="COGvVzHrgGLiA8UMYfeR-34" value="Sensor_soil_humi" style="swimlane;fontStyle=1;align=center;verticalAlign=top;childLayout=stackLayout;horizontal=1;startSize=26;horizontalStack=0;resizeParent=1;resizeParentMax=0;resizeLast=0;collapsible=1;marginBottom=0;" vertex="1" parent="1">
          <mxGeometry x="-215" y="450" width="190" height="60" as="geometry" />
        </mxCell>
        <mxCell id="COGvVzHrgGLiA8UMYfeR-35" value="" style="line;strokeWidth=1;fillColor=none;align=left;verticalAlign=middle;spacingTop=-1;spacingLeft=3;spacingRight=3;rotatable=0;labelPosition=right;points=[];portConstraint=eastwest;strokeColor=inherit;" vertex="1" parent="COGvVzHrgGLiA8UMYfeR-34">
          <mxGeometry y="26" width="190" height="8" as="geometry" />
        </mxCell>
        <mxCell id="COGvVzHrgGLiA8UMYfeR-36" value="+ read_soil_humi(): int soil_humi" style="text;strokeColor=none;fillColor=none;align=left;verticalAlign=top;spacingLeft=4;spacingRight=4;overflow=hidden;rotatable=0;points=[[0,0.5],[1,0.5]];portConstraint=eastwest;" vertex="1" parent="COGvVzHrgGLiA8UMYfeR-34">
          <mxGeometry y="34" width="190" height="26" as="geometry" />
        </mxCell>
        <mxCell id="COGvVzHrgGLiA8UMYfeR-37" value="Sensor_light" style="swimlane;fontStyle=1;align=center;verticalAlign=top;childLayout=stackLayout;horizontal=1;startSize=26;horizontalStack=0;resizeParent=1;resizeParentMax=0;resizeLast=0;collapsible=1;marginBottom=0;" vertex="1" parent="1">
          <mxGeometry x="-215" y="525" width="195" height="60" as="geometry" />
        </mxCell>
        <mxCell id="COGvVzHrgGLiA8UMYfeR-38" value="" style="line;strokeWidth=1;fillColor=none;align=left;verticalAlign=middle;spacingTop=-1;spacingLeft=3;spacingRight=3;rotatable=0;labelPosition=right;points=[];portConstraint=eastwest;strokeColor=inherit;" vertex="1" parent="COGvVzHrgGLiA8UMYfeR-37">
          <mxGeometry y="26" width="195" height="8" as="geometry" />
        </mxCell>
        <mxCell id="COGvVzHrgGLiA8UMYfeR-39" value="+ read_light(): int light" style="text;strokeColor=none;fillColor=none;align=left;verticalAlign=top;spacingLeft=4;spacingRight=4;overflow=hidden;rotatable=0;points=[[0,0.5],[1,0.5]];portConstraint=eastwest;" vertex="1" parent="COGvVzHrgGLiA8UMYfeR-37">
          <mxGeometry y="34" width="195" height="26" as="geometry" />
        </mxCell>
        <mxCell id="COGvVzHrgGLiA8UMYfeR-40" value="Sensor_data" style="swimlane;fontStyle=1;align=center;verticalAlign=top;childLayout=stackLayout;horizontal=1;startSize=26;horizontalStack=0;resizeParent=1;resizeParentMax=0;resizeLast=0;collapsible=1;marginBottom=0;" vertex="1" parent="1">
          <mxGeometry x="-505" y="300" width="195" height="200" as="geometry" />
        </mxCell>
        <mxCell id="COGvVzHrgGLiA8UMYfeR-41" value="+ usersetting: int" style="text;strokeColor=none;fillColor=none;align=left;verticalAlign=top;spacingLeft=4;spacingRight=4;overflow=hidden;rotatable=0;points=[[0,0.5],[1,0.5]];portConstraint=eastwest;" vertex="1" parent="COGvVzHrgGLiA8UMYfeR-40">
          <mxGeometry y="26" width="195" height="26" as="geometry" />
        </mxCell>
        <mxCell id="COGvVzHrgGLiA8UMYfeR-42" value="" style="line;strokeWidth=1;fillColor=none;align=left;verticalAlign=middle;spacingTop=-1;spacingLeft=3;spacingRight=3;rotatable=0;labelPosition=right;points=[];portConstraint=eastwest;strokeColor=inherit;" vertex="1" parent="COGvVzHrgGLiA8UMYfeR-40">
          <mxGeometry y="52" width="195" height="8" as="geometry" />
        </mxCell>
        <mxCell id="COGvVzHrgGLiA8UMYfeR-43" value="+ push_data(String path, int data):&#xa;+ get_sensor_data(String path):&#xa;                                   int data&#xa;+ get_user_setting(String path):&#xa;                          int usersetting)&#xa;+ compare_data_with_setting&#xa;            (int data, int usersetting):&#xa;                                boolean onoff" style="text;strokeColor=none;fillColor=none;align=left;verticalAlign=top;spacingLeft=4;spacingRight=4;overflow=hidden;rotatable=0;points=[[0,0.5],[1,0.5]];portConstraint=eastwest;" vertex="1" parent="COGvVzHrgGLiA8UMYfeR-40">
          <mxGeometry y="60" width="195" height="140" as="geometry" />
        </mxCell>
        <mxCell id="4LXqGNSN8FMaUc9a0r_w-10" style="edgeStyle=orthogonalEdgeStyle;rounded=0;orthogonalLoop=1;jettySize=auto;html=1;exitX=0;exitY=0.25;exitDx=0;exitDy=0;endArrow=block;endFill=0;" parent="1" source="COGvVzHrgGLiA8UMYfeR-27" target="COGvVzHrgGLiA8UMYfeR-40" edge="1">
          <mxGeometry relative="1" as="geometry">
            <mxPoint x="-215" y="289" as="sourcePoint" />
            <mxPoint x="-345" y="373.9999999999999" as="targetPoint" />
            <Array as="points">
              <mxPoint x="-280" y="315" />
              <mxPoint x="-280" y="357" />
            </Array>
          </mxGeometry>
        </mxCell>
      </root>
    </mxGraphModel>
  </diagram>
</mxfile>
